<svg 
 xmlns="http://www.w3.org/2000/svg"
 xmlns:xlink="http://www.w3.org/1999/xlink"
 width="327px" height="868px">
<defs>
<filter filterUnits="userSpaceOnUse" id="Filter_0" x="121.5px" y="553.5px" width="49px" height="49px"  >
    <feOffset in="SourceAlpha" dx="0" dy="3" />
    <feGaussianBlur result="blurOut" stdDeviation="2.236" />
    <feFlood flood-color="rgb(254, 62, 87)" result="floodOut" />
    <feComposite operator="atop" in="floodOut" in2="blurOut" />
    <feComponentTransfer><feFuncA type="linear" slope="0.4"/></feComponentTransfer>
    <feMerge>
    <feMergeNode/>
    <feMergeNode in="SourceGraphic"/>
  </feMerge>
</filter>
<filter filterUnits="userSpaceOnUse" id="Filter_1" x="94.5px" y="223.5px" width="25px" height="24px"  >
    <feOffset in="SourceAlpha" dx="0" dy="3" />
    <feGaussianBlur result="blurOut" stdDeviation="2.236" />
    <feFlood flood-color="rgb(52, 195, 255)" result="floodOut" />
    <feComposite operator="atop" in="floodOut" in2="blurOut" />
    <feComponentTransfer><feFuncA type="linear" slope="0.4"/></feComponentTransfer>
    <feMerge>
    <feMergeNode/>
    <feMergeNode in="SourceGraphic"/>
  </feMerge>
</filter>
<filter filterUnits="userSpaceOnUse" id="Filter_2" x="189.5px" y="692.5px" width="22px" height="22px"  >
    <feOffset in="SourceAlpha" dx="0" dy="3" />
    <feGaussianBlur result="blurOut" stdDeviation="2.236" />
    <feFlood flood-color="rgb(52, 195, 255)" result="floodOut" />
    <feComposite operator="atop" in="floodOut" in2="blurOut" />
    <feComponentTransfer><feFuncA type="linear" slope="0.4"/></feComponentTransfer>
    <feMerge>
    <feMergeNode/>
    <feMergeNode in="SourceGraphic"/>
  </feMerge>
</filter>
<filter filterUnits="userSpaceOnUse" id="Filter_3" x="195.5px" y="444.5px" width="21px" height="21px"  >
    <feOffset in="SourceAlpha" dx="0" dy="3" />
    <feGaussianBlur result="blurOut" stdDeviation="2.236" />
    <feFlood flood-color="rgb(88, 0, 228)" result="floodOut" />
    <feComposite operator="atop" in="floodOut" in2="blurOut" />
    <feComponentTransfer><feFuncA type="linear" slope="0.4"/></feComponentTransfer>
    <feMerge>
    <feMergeNode/>
    <feMergeNode in="SourceGraphic"/>
  </feMerge>
</filter>
<filter filterUnits="userSpaceOnUse" id="Filter_4" x="25.5px" y="361.5px" width="21px" height="22px"  >
    <feOffset in="SourceAlpha" dx="0" dy="3" />
    <feGaussianBlur result="blurOut" stdDeviation="2.236" />
    <feFlood flood-color="rgb(255, 181, 52)" result="floodOut" />
    <feComposite operator="atop" in="floodOut" in2="blurOut" />
    <feComponentTransfer><feFuncA type="linear" slope="0.4"/></feComponentTransfer>
    <feMerge>
    <feMergeNode/>
    <feMergeNode in="SourceGraphic"/>
  </feMerge>
</filter>
<filter filterUnits="userSpaceOnUse" id="Filter_5" x="165.5px" y="73.5px" width="22px" height="22px"  >
    <feOffset in="SourceAlpha" dx="0" dy="3" />
    <feGaussianBlur result="blurOut" stdDeviation="2.236" />
    <feFlood flood-color="rgb(254, 62, 87)" result="floodOut" />
    <feComposite operator="atop" in="floodOut" in2="blurOut" />
    <feComponentTransfer><feFuncA type="linear" slope="0.4"/></feComponentTransfer>
    <feMerge>
    <feMergeNode/>
    <feMergeNode in="SourceGraphic"/>
  </feMerge>
</filter>

</defs>
<path fill-rule="evenodd"  stroke="rgb(236, 236, 236)" stroke-width="1px" stroke-linecap="butt" stroke-linejoin="miter" fill="none"
 d="M279.472,130.147 C279.472,130.147 238.733,263.710 216.50,313.393 C193.368,363.75 162.315,400.902 108.425,442.29 C54.535,483.156 29.119,576.660 118.995,689.594 C208.871,802.528 275.280,834.916 291.4,846.141 "/>
<path fill-rule="evenodd"  stroke="rgb(236, 236, 236)" stroke-width="1px" stroke-linecap="butt" stroke-linejoin="miter" fill="none"
 d="M282.355,1.510 C282.355,1.510 254.872,0.484 220.855,127.720 C186.838,254.955 170.441,290.260 144.941,336.451 C119.440,382.640 92.154,411.497 55.573,437.175 C18.992,462.852 -41.165,537.855 47.886,668.963 C136.938,800.72 297.830,899.379 324.636,854.636 "/>
<g filter="url(#Filter_0)">
<path fill-rule="evenodd"  stroke="rgb(254, 62, 87)" stroke-width="2px" stroke-linecap="butt" stroke-linejoin="miter" fill="none"
 d="M145.984,556.499 C155.657,556.499 163.499,564.558 163.499,574.499 C163.499,584.441 155.657,592.499 145.984,592.499 C136.310,592.499 128.468,584.441 128.468,574.499 C128.468,564.558 136.310,556.499 145.984,556.499 Z"/>
</g>
<g filter="url(#Filter_1)">
<path fill-rule="evenodd"  stroke="rgb(52, 195, 255)" stroke-width="2px" stroke-linecap="butt" stroke-linejoin="miter" fill="none"
 d="M106.968,226.499 C110.6,226.499 112.468,228.962 112.468,231.999 C112.468,235.37 110.6,237.499 106.968,237.499 C103.931,237.499 101.468,235.37 101.468,231.999 C101.468,228.962 103.931,226.499 106.968,226.499 Z"/>
</g>
<g filter="url(#Filter_2)">
<path fill-rule="evenodd"  fill="rgb(52, 195, 255)"
 d="M198.420,700.27 L194.625,696.70 C194.162,695.587 194.162,694.805 194.625,694.323 C195.87,693.840 195.837,693.840 196.300,694.323 L200.95,698.280 L203.890,694.323 C204.353,693.840 205.103,693.840 205.566,694.323 L205.566,694.323 C206.28,694.805 206.28,695.587 205.566,696.70 L201.771,700.27 L205.566,703.985 C206.28,704.467 206.28,705.249 205.566,705.731 L205.566,705.731 C205.103,706.214 204.353,706.214 203.890,705.731 L200.95,701.774 L196.300,705.731 C195.837,706.214 195.87,706.214 194.625,705.731 L194.625,705.731 C194.162,705.249 194.162,704.467 194.625,703.985 L198.420,700.27 Z"/>
</g>
<g filter="url(#Filter_3)">
<path fill-rule="evenodd"  fill="rgb(88, 0, 228)"
 d="M205.488,445.842 L211.145,451.499 L205.488,457.156 L199.831,451.499 L205.488,445.842 Z"/>
</g>
<g filter="url(#Filter_4)">
<path fill-rule="evenodd"  fill="rgb(255, 181, 52)"
 d="M33.775,368.694 L29.979,364.736 C29.517,364.253 29.517,363.472 29.979,362.989 C30.442,362.507 31.192,362.507 31.655,362.989 L35.450,366.947 L39.245,362.989 C39.708,362.507 40.458,362.507 40.921,362.989 L40.921,362.989 C41.383,363.472 41.383,364.253 40.921,364.736 L37.125,368.694 L40.921,372.651 C41.383,373.133 41.383,373.915 40.921,374.398 L40.921,374.398 C40.458,374.880 39.708,374.880 39.245,374.398 L35.450,370.440 L31.655,374.398 C31.192,374.880 30.442,374.880 29.979,374.398 L29.979,374.398 C29.517,373.915 29.517,373.133 29.979,372.651 L33.775,368.694 Z"/>
</g>
<g filter="url(#Filter_5)">
<path fill-rule="evenodd"  fill="rgb(254, 62, 87)"
 d="M174.66,81.49 L170.271,77.91 C169.808,76.609 169.808,75.827 170.271,75.344 C170.733,74.861 171.483,74.861 171.946,75.344 L175.741,79.302 L179.536,75.344 C179.999,74.861 180.749,74.861 181.212,75.344 L181.212,75.344 C181.674,75.827 181.674,76.609 181.212,77.91 L177.417,81.49 L181.212,85.6 C181.674,85.488 181.674,86.271 181.212,86.753 L181.212,86.753 C180.749,87.236 179.999,87.236 179.536,86.753 L175.741,82.796 L171.946,86.753 C171.483,87.236 170.733,87.236 170.271,86.753 L170.271,86.753 C169.808,86.271 169.808,85.488 170.271,85.6 L174.66,81.49 Z"/>
</g>
</svg>