<svg 
 xmlns="http://www.w3.org/2000/svg"
 xmlns:xlink="http://www.w3.org/1999/xlink"
 width="253px" height="670px">
<defs>
<filter filterUnits="userSpaceOnUse" id="Filter_0" x="118.5px" y="208.5px" width="41px" height="42px"  >
    <feOffset in="SourceAlpha" dx="0" dy="3" />
    <feGaussianBlur result="blurOut" stdDeviation="2.236" />
    <feFlood flood-color="rgb(254, 62, 87)" result="floodOut" />
    <feComposite operator="atop" in="floodOut" in2="blurOut" />
    <feComponentTransfer><feFuncA type="linear" slope="0.4"/></feComponentTransfer>
    <feMerge>
    <feMergeNode/>
    <feMergeNode in="SourceGraphic"/>
  </feMerge>
</filter>
<filter filterUnits="userSpaceOnUse" id="Filter_1" x="157.5px" y="466.5px" width="22px" height="22px"  >
    <feOffset in="SourceAlpha" dx="0" dy="3" />
    <feGaussianBlur result="blurOut" stdDeviation="2.236" />
    <feFlood flood-color="rgb(52, 195, 255)" result="floodOut" />
    <feComposite operator="atop" in="floodOut" in2="blurOut" />
    <feComponentTransfer><feFuncA type="linear" slope="0.4"/></feComponentTransfer>
    <feMerge>
    <feMergeNode/>
    <feMergeNode in="SourceGraphic"/>
  </feMerge>
</filter>
<filter filterUnits="userSpaceOnUse" id="Filter_2" x="88.5px" y="123.5px" width="19px" height="19px"  >
    <feOffset in="SourceAlpha" dx="0" dy="3" />
    <feGaussianBlur result="blurOut" stdDeviation="2.236" />
    <feFlood flood-color="rgb(52, 195, 255)" result="floodOut" />
    <feComposite operator="atop" in="floodOut" in2="blurOut" />
    <feComponentTransfer><feFuncA type="linear" slope="0.4"/></feComponentTransfer>
    <feMerge>
    <feMergeNode/>
    <feMergeNode in="SourceGraphic"/>
  </feMerge>
</filter>
<filter filterUnits="userSpaceOnUse" id="Filter_3" x="84.5px" y="315.5px" width="18px" height="18px"  >
    <feOffset in="SourceAlpha" dx="0" dy="3" />
    <feGaussianBlur result="blurOut" stdDeviation="2.236" />
    <feFlood flood-color="rgb(88, 0, 228)" result="floodOut" />
    <feComposite operator="atop" in="floodOut" in2="blurOut" />
    <feComponentTransfer><feFuncA type="linear" slope="0.4"/></feComponentTransfer>
    <feMerge>
    <feMergeNode/>
    <feMergeNode in="SourceGraphic"/>
  </feMerge>
</filter>
<filter filterUnits="userSpaceOnUse" id="Filter_4" x="212.5px" y="362.5px" width="19px" height="19px"  >
    <feOffset in="SourceAlpha" dx="0" dy="3" />
    <feGaussianBlur result="blurOut" stdDeviation="2.236" />
    <feFlood flood-color="rgb(255, 181, 52)" result="floodOut" />
    <feComposite operator="atop" in="floodOut" in2="blurOut" />
    <feComponentTransfer><feFuncA type="linear" slope="0.4"/></feComponentTransfer>
    <feMerge>
    <feMergeNode/>
    <feMergeNode in="SourceGraphic"/>
  </feMerge>
</filter>
<filter filterUnits="userSpaceOnUse" id="Filter_5" x="217.5px" y="74.5px" width="19px" height="20px"  >
    <feOffset in="SourceAlpha" dx="0" dy="3" />
    <feGaussianBlur result="blurOut" stdDeviation="2.236" />
    <feFlood flood-color="rgb(255, 181, 52)" result="floodOut" />
    <feComposite operator="atop" in="floodOut" in2="blurOut" />
    <feComponentTransfer><feFuncA type="linear" slope="0.4"/></feComponentTransfer>
    <feMerge>
    <feMergeNode/>
    <feMergeNode in="SourceGraphic"/>
  </feMerge>
</filter>
<filter filterUnits="userSpaceOnUse" id="Filter_6" x="107.5px" y="599.5px" width="18px" height="20px"  >
    <feOffset in="SourceAlpha" dx="0" dy="3" />
    <feGaussianBlur result="blurOut" stdDeviation="2.236" />
    <feFlood flood-color="rgb(254, 62, 87)" result="floodOut" />
    <feComposite operator="atop" in="floodOut" in2="blurOut" />
    <feComponentTransfer><feFuncA type="linear" slope="0.4"/></feComponentTransfer>
    <feMerge>
    <feMergeNode/>
    <feMergeNode in="SourceGraphic"/>
  </feMerge>
</filter>

</defs>
<path fill-rule="evenodd"  stroke="rgb(236, 236, 236)" stroke-width="1px" stroke-linecap="butt" stroke-linejoin="miter" fill="none"
 d="M36.301,568.303 C36.301,568.303 67.584,465.499 85.2,427.258 C102.420,389.17 126.265,359.901 167.646,328.246 C209.28,296.590 228.544,224.620 159.529,137.694 C90.514,50.769 39.520,25.840 27.446,17.199 "/>
<path fill-rule="evenodd"  stroke="rgb(236, 236, 236)" stroke-width="1px" stroke-linecap="butt" stroke-linejoin="miter" fill="none"
 d="M34.87,667.315 C34.87,667.315 55.191,668.104 81.312,570.171 C107.434,472.237 120.25,445.63 139.606,409.510 C159.188,373.958 180.140,351.746 208.230,331.982 C236.320,312.218 282.515,254.489 214.133,153.574 C145.752,52.659 22.205,-23.777 1.620,10.661 "/>
<g filter="url(#Filter_0)">
<path fill-rule="evenodd"  stroke="rgb(254, 62, 87)" stroke-width="2px" stroke-linecap="butt" stroke-linejoin="miter" fill="none"
 d="M138.828,212.437 C146.257,212.437 152.281,218.635 152.281,226.281 C152.281,233.926 146.257,240.124 138.828,240.124 C131.398,240.124 125.374,233.926 125.374,226.281 C125.374,218.635 131.398,212.437 138.828,212.437 Z"/>
</g>
<g filter="url(#Filter_1)">
<path fill-rule="evenodd"  stroke="rgb(52, 195, 255)" stroke-width="2px" stroke-linecap="butt" stroke-linejoin="miter" fill="none"
 d="M167.781,469.687 C170.111,469.687 171.999,471.583 171.999,473.921 C171.999,476.260 170.111,478.156 167.781,478.156 C165.451,478.156 163.562,476.260 163.562,473.921 C163.562,471.583 165.451,469.687 167.781,469.687 Z"/>
</g>
<g filter="url(#Filter_2)">
<path fill-rule="evenodd"  fill="rgb(52, 195, 255)"
 d="M98.540,129.664 L101.454,132.710 C101.810,133.81 101.810,133.683 101.454,134.54 C101.99,134.426 100.523,134.426 100.168,134.54 L97.254,131.9 L94.339,134.54 C93.984,134.426 93.408,134.426 93.53,134.54 L93.53,134.54 C92.698,133.683 92.698,133.81 93.53,132.710 L95.967,129.664 L93.53,126.618 C92.698,126.247 92.698,125.645 93.53,125.273 L93.53,125.273 C93.408,124.902 93.984,124.902 94.339,125.273 L97.254,128.319 L100.168,125.273 C100.523,124.902 101.99,124.902 101.454,125.273 L101.454,125.273 C101.810,125.645 101.810,126.247 101.454,126.618 L98.540,129.664 Z"/>
</g>
<g filter="url(#Filter_3)">
<path fill-rule="evenodd"  fill="rgb(88, 0, 228)"
 d="M93.113,325.311 L88.768,320.957 L93.113,316.603 L97.457,320.957 L93.113,325.311 Z"/>
</g>
<g filter="url(#Filter_4)">
<path fill-rule="evenodd"  fill="rgb(255, 181, 52)"
 d="M222.972,368.703 L225.887,371.749 C226.242,372.120 226.242,372.722 225.887,373.93 C225.532,373.465 224.956,373.465 224.600,373.93 L221.686,370.47 L218.772,373.93 C218.416,373.465 217.841,373.465 217.485,373.93 L217.485,373.93 C217.130,372.722 217.130,372.120 217.485,371.749 L220.400,368.703 L217.485,365.657 C217.130,365.286 217.130,364.684 217.485,364.312 L217.485,364.312 C217.841,363.941 218.416,363.941 218.772,364.312 L221.686,367.358 L224.600,364.312 C224.956,363.941 225.532,363.941 225.887,364.312 L225.887,364.312 C226.242,364.684 226.242,365.286 225.887,365.657 L222.972,368.703 Z"/>
</g>
<g filter="url(#Filter_5)">
<path fill-rule="evenodd"  fill="rgb(255, 181, 52)"
 d="M227.964,80.892 L230.878,83.938 C231.233,84.309 231.233,84.911 230.878,85.282 C230.523,85.653 229.947,85.653 229.592,85.282 L226.677,82.236 L223.763,85.282 C223.408,85.653 222.832,85.653 222.477,85.282 L222.477,85.282 C222.121,84.911 222.121,84.309 222.477,83.938 L225.391,80.892 L222.477,77.846 C222.121,77.474 222.121,76.872 222.477,76.501 L222.477,76.501 C222.832,76.130 223.408,76.130 223.763,76.501 L226.677,79.547 L229.592,76.501 C229.947,76.130 230.523,76.130 230.878,76.501 L230.878,76.501 C231.233,76.872 231.233,77.474 230.878,77.846 L227.964,80.892 Z"/>
</g>
<g filter="url(#Filter_6)">
<path fill-rule="evenodd"  fill="rgb(254, 62, 87)"
 d="M117.241,606.93 L120.156,609.139 C120.511,609.511 120.511,610.113 120.156,610.484 C119.800,610.856 119.224,610.856 118.869,610.484 L115.955,607.438 L113.40,610.484 C112.685,610.856 112.109,610.856 111.754,610.484 L111.754,610.484 C111.399,610.113 111.399,609.511 111.754,609.139 L114.668,606.93 L111.754,603.48 C111.399,602.677 111.399,602.74 111.754,601.703 L111.754,601.703 C112.109,601.331 112.685,601.331 113.40,601.703 L115.955,604.748 L118.869,601.703 C119.224,601.331 119.800,601.331 120.156,601.703 L120.156,601.703 C120.511,602.74 120.511,602.677 120.156,603.48 L117.241,606.93 Z"/>
</g>
</svg>