<?xml version="1.0" encoding="UTF-8"?>
<svg xmlns="http://www.w3.org/2000/svg" xmlns:xlink="http://www.w3.org/1999/xlink" width="17px" height="16px" viewBox="0 0 16 16" version="1.1">
<g id="surface1">
<path style=" stroke:none;fill-rule:nonzero;fill:rgb(0%,0%,0%);fill-opacity:1;" d="M 15.75 8 C 15.75 3.71875 12.28125 0.25 8 0.25 C 3.71875 0.25 0.25 3.71875 0.25 8 C 0.25 11.867188 3.085938 15.074219 6.789062 15.65625 L 6.789062 10.242188 L 4.820312 10.242188 L 4.820312 8 L 6.789062 8 L 6.789062 6.292969 C 6.789062 4.351562 7.945312 3.277344 9.714844 3.277344 C 10.5625 3.277344 11.453125 3.429688 11.453125 3.429688 L 11.453125 5.335938 L 10.472656 5.335938 C 9.511719 5.335938 9.210938 5.933594 9.210938 6.546875 L 9.210938 8 L 11.359375 8 L 11.015625 10.242188 L 9.210938 10.242188 L 9.210938 15.65625 C 12.914062 15.074219 15.75 11.867188 15.75 8 Z M 15.75 8 "/>
</g>
</svg>
